<svg width="346" height="102" viewBox="0 0 346 102" fill="none" xmlns="http://www.w3.org/2000/svg">
<path d="M53.469 22C53.469 9.84977 63.3189 0 75.469 0C87.6191 0 97.469 9.84977 97.469 22C97.469 34.1502 87.6191 44 75.469 44C63.3189 44 53.469 34.1502 53.469 22Z" fill="#FF2C2C" fill-opacity="0.1"/>
<path d="M57.469 22C57.469 12.0589 65.528 4 75.469 4C85.41 4 93.469 12.0589 93.469 22C93.469 31.9411 85.41 40 75.469 40C65.528 40 57.469 31.9411 57.469 22Z" fill="#FF2C2C"/>
<path d="M76.559 47.9771V60.93C76.559 66.669 76.555 70.729 76.292 73.901C76.033 77.024 75.542 78.927 74.766 80.419C73.256 83.326 70.886 85.697 67.978 87.207C66.486 87.983 64.583 88.474 61.46 88.733C58.288 88.996 54.228 89 48.4896 89H36.5383C30.7995 89 26.7399 88.996 23.5683 88.733C20.4446 88.474 18.5423 87.983 17.0498 87.207C14.1424 85.697 11.7718 83.326 10.2615 80.419C9.48621 78.927 8.99531 77.024 8.73581 73.901C8.47251 70.729 8.46921 66.669 8.46921 60.93V48.9793C8.46921 43.2404 8.47251 39.1808 8.73581 36.0092C8.99531 32.8855 9.48621 30.9832 10.2615 29.4907C11.7718 26.5833 14.1424 24.2127 17.0498 22.7024C18.5423 21.9271 20.4446 21.4362 23.5683 21.1768C26.7399 20.9134 30.7994 20.9102 36.5383 20.9102H49.4916C49.6072 18.1061 50.167 15.4166 51.102 12.9102H36.3604C30.8395 12.9101 26.4477 12.9101 22.9062 13.2042C19.2789 13.5054 16.1867 14.1358 13.362 15.6031C8.99341 17.8724 5.43151 21.4344 3.16221 25.803C1.69491 28.6276 1.06451 31.7198 0.763309 35.3471C0.469209 38.8886 0.469208 43.2804 0.469208 48.8013V61.108C0.469208 66.629 0.469209 71.021 0.763309 74.563C1.06451 78.19 1.69491 81.282 3.16221 84.107C5.43151 88.475 8.99341 92.037 13.362 94.307C16.1867 95.774 19.2789 96.404 22.9062 96.706C26.4477 97 30.8393 97 36.3602 97H48.6674C54.188 97 58.58 97 62.122 96.706C65.749 96.404 68.841 95.774 71.666 94.307C76.034 92.037 79.596 88.475 81.866 84.107C83.333 81.282 83.963 78.19 84.265 74.563C84.559 71.021 84.559 66.629 84.559 61.109V46.3665C82.052 47.3018 79.363 47.8615 76.559 47.9771Z" fill="black"/>
<path d="M339.723 86.789C338.057 86.789 336.675 86.284 335.579 85.276C334.526 84.223 334 82.929 334 81.394C334 79.859 334.526 78.587 335.579 77.579C336.675 76.526 338.057 76 339.723 76C341.346 76 342.684 76.526 343.736 77.579C344.789 78.587 345.315 79.859 345.315 81.394C345.315 82.929 344.789 84.223 343.736 85.276C342.684 86.284 341.346 86.789 339.723 86.789Z" fill="#FF2C2C"/>
<path d="M127 57.35V51H103.5V87H127V80.65H110.3V71.4H124V65.05H110.3V57.35H127ZM156.666 87V70.9C156.666 67.5 155.766 64.45 153.116 62.2C151.166 60.55 148.166 59.25 145.216 59.25C140.366 59.25 136.916 61 134.066 63.7L137.966 68.2C139.716 66.65 142.066 65.65 144.716 65.65C147.816 65.65 149.466 67.05 149.916 69C146.366 69.5 140.666 70.1 137.266 71.65C133.866 73.2 132.516 75.9 132.516 79.4C132.516 84.45 135.966 87.75 141.416 87.75C145.566 87.75 148.016 86.8 150.716 83.7V87H156.666ZM149.016 79C147.816 80.8 145.666 82.1 143.066 82.1C140.866 82.1 139.216 80.75 139.216 78.9C139.216 77.1 141.066 76.15 143.116 75.7C145.666 75.15 148.316 74.6 149.916 74.3C149.916 75.7 149.966 77.55 149.016 79ZM184.972 67.1C183.922 64.3 181.822 61.85 179.222 60.6C177.372 59.65 175.322 59.25 173.472 59.25C171.622 59.25 169.672 59.35 167.572 60.25C164.772 61.45 162.672 64.1 162.672 67.5C162.672 68.65 163.072 70.6 164.022 71.8C165.022 73.1 166.822 74.1 168.372 74.75C169.222 75.1 170.072 75.3 175.222 76.75C177.122 77.3 179.122 77.65 179.122 79.3C179.122 80.05 178.772 80.5 178.072 81C177.272 81.6 175.422 81.9 174.422 81.9C172.572 81.9 170.722 81.45 169.372 80.05C168.672 79.3 168.072 77.95 167.772 76.75L161.672 78.3C162.072 80.15 162.722 82 164.522 84.1C166.922 86.9 170.322 87.75 174.272 87.75C176.872 87.75 179.072 87.4 181.372 85.95C183.722 84.55 185.222 81.95 185.222 79.2C185.222 74.75 181.822 71.95 176.722 70.55L171.722 69.15C170.072 68.7 168.772 68.4 168.772 67.25C168.772 65.9 170.972 65 173.072 65.1C175.522 65.2 177.622 66.15 178.622 68.7L184.972 67.1ZM207.65 60L200.75 79.15L194.05 60H187.25L197.65 87.8C196.8 90.2 196.15 91.25 195.2 91.9C194.35 92.45 193.3 92.55 191.75 92.55V99C195.05 99 197 98.95 198.75 97.65C200.75 96.15 201.85 93.45 202.9 90.65L214.4 60H207.65ZM250.375 57.8V51H228.375V87H235.175V72.4H247.375V65.6H235.175V57.8H250.375ZM255.359 50.25V56.25H262.159V50.25H255.359ZM255.359 60V87H262.159V60H255.359ZM292.022 62.15C289.422 59.6 286.172 59.05 282.972 59.25C280.522 59.4 277.772 60.3 276.022 62.4C275.922 62.55 275.772 62.7 275.672 62.8V60H269.672V87H276.522V75.25C276.522 73.4 276.572 71.3 276.822 70.1C277.122 68.6 277.822 67.4 278.822 66.65C279.722 66 280.772 65.65 282.022 65.6C283.872 65.55 285.322 66.1 286.272 67.15C287.672 68.65 288.072 71.45 288.072 74.25V87H294.972V73.95C294.972 69.75 294.972 65.05 292.022 62.15ZM319.353 51V61.1C317.453 59.95 315.153 59.25 312.753 59.25C309.003 59.25 305.403 60.7 303.103 63.55C301.003 66.2 299.953 69.75 299.953 73.5C299.953 77.2 300.803 80.65 303.103 83.45C305.303 86.2 308.853 87.75 312.403 87.75C315.403 87.75 318.103 86.95 320.203 85.35V87H326.203V51H319.353ZM318.303 79.8C317.103 81.1 315.453 81.7 313.503 81.7C311.603 81.7 309.653 81.05 308.503 79.3C307.553 77.9 307.153 75.8 307.153 73.5C307.153 71.2 307.653 69.1 308.603 67.7C309.753 65.95 311.503 65.3 313.753 65.3C315.603 65.3 317.203 65.9 318.303 67.2C319.603 68.7 320.203 71.05 320.203 73.5C320.203 75.95 319.603 78.35 318.303 79.8Z" fill="black"/>
</svg>
